<svg xmlns="http://www.w3.org/2000/svg" width="23.007" height="21.981" viewBox="0 0 23.007 21.981"><defs><style>.a{fill:#fff;}</style></defs><path class="a" d="M1514.73,2249.378a8.042,8.042,0,0,0-1.231-.715,4.931,4.931,0,0,0,1.638-3.659,5.013,5.013,0,0,0-4.976-4.992h6.992a1,1,0,0,1,1.008,1v9.1a.914.914,0,0,0,.917.911c.764,0,1.1-.406,1.1-.911v-10.1a2.009,2.009,0,0,0-2.016-2h-16.13a2.009,2.009,0,0,0-2.016,2v16.016a2.009,2.009,0,0,0,2.016,2H1512.2a.914.914,0,0,0,.917-.911c0-.758-.409-1.091-.917-1.091h-8.181s-.006-.067-.006-.107c0-6.1,7.446-6.911,9.316-5.186C1514.34,2251.666,1515.865,2250.178,1514.73,2249.378Zm-12.686,5.708c0-.021-.012-.038-.012-.059v-14.014a1,1,0,0,1,1.008-1h6.992a5.022,5.022,0,0,0-4.976,5,4.964,4.964,0,0,0,1.615,3.654A8,8,0,0,0,1502.043,2255.087Zm8.681-7.133a6.319,6.319,0,0,0-1.266,0,3.022,3.022,0,1,1,1.266,0Zm10.8,10.421c-2.145,1.955-2.529,2.375-5.173-.067-3.52-3.249.3-6.772,2.467-4.038a.2.2,0,0,0,.313,0C1521.265,2251.558,1525.181,2255.043,1521.521,2258.375Z" transform="translate(-1500.015 -2238.011)"/></svg>