<svg xmlns="http://www.w3.org/2000/svg" width="20" height="20" viewBox="0 0 20 20"><defs><style>.a{fill:#1a6ade;}</style></defs><path class="a" d="M1234.954,432a2.043,2.043,0,0,1-.664-.147,2.088,2.088,0,0,1-.7-.466l-2.58-2.7a.774.774,0,0,1-.292-.584,3.3,3.3,0,0,1,.294-1.042h.024c.185,0,.421-.043.658-.043a.969.969,0,0,1,.724.251l.732.942a.507.507,0,0,0,.139.1.482.482,0,0,0,.21.048.51.51,0,0,0,.4-.191.491.491,0,0,0,.105-.282q0-.015,0-.03v-8.824a1.059,1.059,0,0,1,1.054-1l-.011,0h.022l-.011,0a.965.965,0,0,1,.943,1v8.824a.491.491,0,0,0,.23.422h0l0,0a.5.5,0,0,0,.386.062.5.5,0,0,0,.233-.134l.731-.737c.39-.392,1.412-.4,1.412,0v-.005c0,.26.172.622.174.95a.61.61,0,0,1-.174.456l-2.581,2.569a1.905,1.905,0,0,1-1.361.563Zm-5.67-5.942h-.075a4.127,4.127,0,0,1-4.209-4.032,3.923,3.923,0,0,1,.732-2.272,4.292,4.292,0,0,1,2.342-1.626,6.986,6.986,0,0,1,10.808-4.936,7.289,7.289,0,0,1,2.557,3.07,5.035,5.035,0,0,1,2.659,1.938,4.982,4.982,0,0,1,.9,2.857c-.005,2.532-1.994,5-6.005,5a1,1,0,0,1,0-2.007h.894c4.253,0,3.945-6.153.005-6.01a4.642,4.642,0,0,0-3.853-3.9,5.26,5.26,0,0,0-5.759,3,5.052,5.052,0,0,0-.038,3.341,2.123,2.123,0,0,0-.752-.4,1.771,1.771,0,0,0-.477-.066,2.08,2.08,0,0,0-1.779,1.142,1.834,1.834,0,0,0,.247,2.171,2.314,2.314,0,0,0,.316.283,3.41,3.41,0,0,0,2.154.457l.189,0,.188,0c.09,0,.179,0,.266,0,.606,0,1.1.068,1.308.482h0l0,0a.886.886,0,0,1,.061.167l.006.025,0,.007h0l.007.032,0,.027c0,.019.006.039.009.06s0,.042.006.064q0,.061,0,.128c0,.041,0,.08,0,.118v0l0,.027c-.077.761-.762.877-1.614.877C1230.035,426.077,1229.658,426.058,1229.284,426.056Z" transform="translate(-1225 -412)"/></svg>