<svg xmlns="http://www.w3.org/2000/svg" width="16.011" height="19.026" viewBox="0 0 16.011 19.026"><defs><style>.a{fill:#fff;}</style></defs><path class="a" d="M2078,1244.6a1,1,0,0,0-.292-.707l-6.3-6.339a2,2,0,0,0-2.832-.006l-6.291,6.273a1,1,0,0,0-.294.709v9.669a1.832,1.832,0,0,0,2,1.791h3a1.832,1.832,0,0,0,2-1.791v-1a1,1,0,1,1,2,0v1a1.832,1.832,0,0,0,2,1.791h3a1.832,1.832,0,0,0,2-1.791Zm-2,8.6c0,.553-.448.789-1,.789h-1c-.552,0-1-.236-1-.789v-1a2.194,2.194,0,0,0-2-2.215h-2a2.194,2.194,0,0,0-2,2.215v1c0,.553-.448.789-1,.789h-1c-.553,0-1-.236-1-.789v-8.074a.5.5,0,0,1,.147-.354l5.14-5.144a1,1,0,0,1,1.416,0l5.16,5.163a.5.5,0,0,1,.147.354Z" transform="translate(-2061.992 -1236.964)"/></svg>