<svg xmlns="http://www.w3.org/2000/svg" width="20.021" height="19.991" viewBox="0 0 20.021 19.991"><defs><style>.a{fill:#fff;}</style></defs><path class="a" d="M1631.026,2128.491a3.961,3.961,0,0,0,.975-2.588,4,4,0,0,0-8.009,0,3.959,3.959,0,0,0,.975,2.587,7.981,7.981,0,0,0-4.979,7.392.458.458,0,0,0,.024.11H1636A7.957,7.957,0,0,0,1631.026,2128.491ZM1628,2123.9a2,2,0,0,1,.042,3.994l-.042,0-.042,0a2,2,0,0,1,.042-3.994Zm-5.695,10.089a6.01,6.01,0,0,1,5.652-4.1c.014,0,.028,0,.042,0s.028,0,.042,0a6.008,6.008,0,0,1,5.653,4.1ZM1640.009,2119v2h-3v3h-2v-3h-3v-2h3v-3h2v3Z" transform="translate(-1619.988 -2116.001)"/></svg>