<svg xmlns="http://www.w3.org/2000/svg" xmlns:xlink="http://www.w3.org/1999/xlink" width="85" height="83" viewBox="0 0 85 83"><defs><style>.a,.e{fill:#fff;}.a{stroke:#707070;}.b{fill:#34aa44;}.c{clip-path:url(#a);}.d{clip-path:url(#b);}.e{opacity:0.102;}.f{fill:none;stroke:#48b257;stroke-linecap:round;stroke-width:9px;}</style><clipPath id="a"><rect class="a" width="85" height="83" transform="translate(592 190)"/></clipPath><clipPath id="b"><rect class="b" width="255" height="165" rx="4" transform="translate(450 190)"/></clipPath></defs><g class="c" transform="translate(-592 -190)"><g class="d"><path class="e" d="M595,188a8,8,0,0,1,8-8h64a8,8,0,0,1,8,8v74a8,8,0,0,1-8,8H603a8,8,0,0,1-8-8V188m12,0a4,4,0,0,0-4,4v66a4,4,0,0,0,4,4h56a4,4,0,0,0,4-4V192a4,4,0,0,0-4-4H607"/></g><path class="f" d="M614.919,227.237l13.193,16.017,28.561-28.136"/></g></svg>