<svg xmlns="http://www.w3.org/2000/svg" width="20.022" height="19.996" viewBox="0 0 20.022 19.996"><defs><style>.a{fill:#fff;}</style></defs><path class="a" d="M2078.012,965.077v9.061a1.828,1.828,0,0,1-1.873,1.873H2062a1.943,1.943,0,0,1-2.006-1.873V960.015a2.052,2.052,0,0,1,2.006-2h9.073a.96.96,0,0,1,.934,1.016v.016a.918.918,0,0,1-.934.968h-8.009a1.116,1.116,0,0,0-1.068,1.064v12a1.007,1.007,0,0,0,1.068.935h12.013a.892.892,0,0,0,.934-.935v-8a1.072,1.072,0,0,1,1.018-1.065h.017A1.03,1.03,0,0,1,2078.012,965.077Zm1-7.063h-1v-1a1,1,0,0,0-2,0v1h-1a1,1,0,1,0,0,2h1v1a1,1,0,0,0,2,0v-1h1a1,1,0,1,0,0-2Z" transform="translate(-2059.992 -956.014)"/></svg>