<svg xmlns="http://www.w3.org/2000/svg" width="80.328" height="186.23" viewBox="0 0 80.328 186.23"><defs><style>.a{fill:#233862;}.a,.b,.c,.d,.e,.f,.g,.h{fill-rule:evenodd;}.b{fill:#ffb27d;}.c{fill:#ed985f;}.d{fill:#05204c;}.e{fill:#b64c41;}.f{fill:#739af0;}.g{fill:#aa413e;}.h{fill:#2b478b;}</style></defs><g transform="translate(-3391.516 -3339.84)"><path class="a" d="M350.32,1641.906a15.922,15.922,0,0,1,.418-3.9c.417-.976,1.948-4.942,1.948-4.942h5.985a36.7,36.7,0,0,1,1.183,4.8c.07,1.183,0,4.044,0,4.044H350.32" transform="translate(3061.848 1884.164)"/><path class="a" d="M458.663,1641.906a15.933,15.933,0,0,0-.417-3.9c-.418-.976-1.949-4.942-1.949-4.942h-5.985a36.658,36.658,0,0,0-1.183,4.8c-.07,1.183,0,4.044,0,4.044h9.534" transform="translate(2991.504 1884.164)"/><path class="b" d="M380.1,1084.092s-.211,6.523-1.046,9.448l-6.609,4.609,24.878,3.725-5.933-8.2s-1.791-8.748-.852-11.984-10.438,2.4-10.438,2.4" transform="translate(3046.095 2277.53)"/><path class="c" d="M398.908,1095.64s1.967,4.735,5.673,4.632,4.549-4.295,4.549-4.295l-10.222-.337" transform="translate(3027.246 2266.883)"/><path class="d" d="M385.075,1035.689a59.534,59.534,0,0,0-2.032-7.784c-.835-1.811-1.531-9.882,7.725-10.3,0,0,3.549.417,5.5-.766,0,0,0,1.183-.487,1.6a6.151,6.151,0,0,1,5.706,2.018c2.505,2.784-1.67,12.528-1.461,14.825l-14.948.406" transform="translate(3038.867 2323)"/><path class="b" d="M398.271,1061.089c-2.685-.046-7.627-3.621-7.627-8.048v-6.912a2.757,2.757,0,0,1,2.505-2.939h10.244a2.758,2.758,0,0,1,2.505,2.939v6.52c0,4.64-4.548,8.495-7.627,8.44" transform="translate(3033.132 2304.235)"/><path class="d" d="M389.8,1045.951s.014-4.151,3.3-4.79,10.647,2.024,11.691-1-14.225-2.974-14.993-1.042,0,6.837,0,6.837" transform="translate(3033.977 2308.104)"/><path class="e" d="M349.929,1311.3s1.047,31.975-.518,50.219.011,43.631.011,43.631a11.831,11.831,0,0,0,10.435,0s5.953-35.242,5.915-43.631c-.04-8.935,6.479-48.826,6.479-48.826l-22.323-1.393" transform="translate(3062.989 2113.302)"/><path class="e" d="M425.1,1405.015a11.828,11.828,0,0,1-10.434,0s-5.952-35.245-5.915-43.634c.017-3.771-1.136-13.069-2.474-22.545-1.831-12.968-4.006-26.276-4.006-26.276l23.188-1.451s-1.912,32.03-.347,50.271-.012,43.634-.012,43.634" transform="translate(3024.854 2113.438)"/><path class="f" d="M387.432,1184.182a116.037,116.037,0,0,1-18.9,1.914,91.5,91.5,0,0,1-11.61-.887c-3.762-.5-6.459-1.028-6.459-1.028s-2,.176-.821-9.707c.9-7.519.618-14.307.418-21.293-.023-.777-.006-1.7.042-2.717.384-8.146,2.848-22.807,4.724-23.593a34.255,34.255,0,0,1,7.722-1.543c0,.1,2.862,4.277,6.259,4.75a11.8,11.8,0,0,0,6.077-4.614,66.242,66.242,0,0,1,9.526,1.837s.355,1.554,1.7,28.5c.532,10.674,4.175,28.417,1.33,28.38" transform="translate(3062.599 2245.74)"/><path class="g" d="M418.659,1402.486c.017-3.771-1.136-13.069-2.474-22.545a44.633,44.633,0,0,1,4.77-11.111c4.28,12-2.3,33.656-2.3,33.656" transform="translate(3014.943 2072.333)"/><path class="h" d="M290.58,1162.346c-.236.2.587,2.234,1.8,4.891,2.493,5.455,6.633,13.509,6.633,13.509a23.873,23.873,0,0,1-1.256,3.679,87.749,87.749,0,0,1-14.322-13.7c-4.029-5.02-4.856-7.9-4.856-7.9C294.083,1131.263,305,1130.1,305,1130.1l-1.289,20.861s-12.409,10.789-13.127,11.385" transform="translate(3112.94 2242.343)"/><path class="h" d="M459.367,1193.553c-2.312,4.626-11.028,4.459-11.028,4.459-1.6-12.292-1.955-71.112-1.955-71.112a59.925,59.925,0,0,1,6.868,1.411c2.831,5.475,3.833,15.726,4.079,22.951a57.228,57.228,0,0,1-.113,7.916c-.221,1.154.058,6.652.483,12.922.659,9.784,1.666,21.454,1.666,21.454" transform="translate(2993.437 2244.622)"/><path class="h" d="M354.751,1126.34s-.584,58.982-2.184,71.271c0,0-8.715.167-11.027-4.456,0,0,3.58-36.3,3.016-39.252-.393-2.058.628-18.976,4.4-26.247a39.759,39.759,0,0,1,5.8-1.316" transform="translate(3068.101 2245.021)"/><path class="b" d="M345.288,1302.171s3.758-3.477,5.289-1.528,1.81,5.009.626,4.8-3.619-1.324-3.967-.766-1.907,1.621-2.38.774.432-3.282.432-3.282" transform="translate(3065.837 2121.314)"/><path class="b" d="M311.023,1272.619a23.869,23.869,0,0,1-1.257,3.679,87.754,87.754,0,0,1-14.322-13.7,17.873,17.873,0,0,0,8.946-3.492c2.493,5.455,6.633,13.509,6.633,13.509" transform="translate(3100.927 2150.469)"/><path class="h" d="M493.54,1163.591s-.827,2.879-4.856,7.9a87.746,87.746,0,0,1-14.322,13.7,23.892,23.892,0,0,1-1.257-3.679s4.14-8.054,6.633-13.509c1.211-2.657,2.033-4.695,1.8-4.891-.558-.463-8.138-7.05-11.52-9.989l-1.607-1.4-.775-20.553s10.4.855,25.906,32.421" transform="translate(2978.304 2241.581)"/><path class="b" d="M473.064,1302.171s-3.758-3.477-5.289-1.528-1.809,5.009-.626,4.8,3.619-1.324,3.967-.766,1.907,1.621,2.38.774-.431-3.282-.431-3.282" transform="translate(2979.171 2121.314)"/><path class="b" d="M486.641,1272.619a23.869,23.869,0,0,0,1.257,3.679,87.754,87.754,0,0,0,14.322-13.7,17.873,17.873,0,0,1-8.946-3.492c-2.493,5.455-6.633,13.509-6.633,13.509" transform="translate(2964.768 2150.469)"/><path class="e" d="M395.255,1063.119a1.628,1.628,0,0,0-1.282.538,1.355,1.355,0,0,0-.24,1.163,2.182,2.182,0,0,0,1.953,1.661,6.029,6.029,0,0,0,1.673.078l.011,0c.831,0,1.421-.484,1.856-1.526a1.834,1.834,0,0,0,.07-1.508,1.149,1.149,0,0,0-1.026-.4Zm1.57,3.661c-.981,0-2.944-.219-3.287-1.923a1.547,1.547,0,0,1,.281-1.327,1.833,1.833,0,0,1,1.436-.61h3.016a1.333,1.333,0,0,1,1.191.492,1.971,1.971,0,0,1-.052,1.7c-.469,1.123-1.116,1.647-2.033,1.647a4.9,4.9,0,0,1-.551.026Z" transform="translate(3031.1 2290.185)"/><path class="e" d="M420.809,1063.119a1.149,1.149,0,0,0-1.025.4,1.833,1.833,0,0,0,.07,1.508c.436,1.042,1.025,1.526,1.856,1.526l.012,0a6.028,6.028,0,0,0,1.673-.078,2.182,2.182,0,0,0,1.953-1.661,1.354,1.354,0,0,0-.24-1.163,1.627,1.627,0,0,0-1.282-.538Zm1.446,3.661a4.877,4.877,0,0,1-.551-.026c-.918,0-1.564-.524-2.033-1.647a1.969,1.969,0,0,1-.052-1.7,1.332,1.332,0,0,1,1.191-.492h3.016a1.832,1.832,0,0,1,1.436.61,1.546,1.546,0,0,1,.281,1.327c-.343,1.7-2.306,1.923-3.287,1.923Z" transform="translate(3012.626 2290.185)"/><path class="e" d="M413.093,1066.589a.119.119,0,0,1-.05-.227,2.812,2.812,0,0,1,2.281,0,.12.12,0,0,1,.049.161.118.118,0,0,1-.161.049,2.609,2.609,0,0,0-2.07,0,.1.1,0,0,1-.049.011" transform="translate(3017.229 2287.912)"/></g></svg>