<svg xmlns="http://www.w3.org/2000/svg" width="55.654" height="184.633" viewBox="0 0 55.654 184.633"><defs><style>.a{fill:#233862;}.a,.b,.c,.d,.e,.f,.g{fill-rule:evenodd;}.b{fill:#2b478b;}.c{fill:#ffb27d;}.d{fill:#ed985f;}.e{fill:#2c3a64;}.f{fill:#f99746;}.g{fill:#ed7d2b;}</style></defs><g transform="translate(-4145.128 -2962.22)"><path class="a" d="M908.43,238.659c-.149-.421-1.925-4.907-8.991-2.945,0,0,3.567-.673,4.637.651,0,0-2.929-1.13-4.646.071s-1.785,4.893-1.45,6,2.509,4.309,3.814,4.229a3.878,3.878,0,0,0,1.466-.46,17.182,17.182,0,0,0-.411,1.972c-.986,6.6,3.653,11.295,5.82,9.933,1.39-.874,2.632,1.576,2.632,1.576l10.963-16.547s-8.927-9.481-13.833-4.476" transform="translate(3260.328 2727)"/><path class="b" d="M952.492,511.888c-1.356,3.469-8.307,10.611-15.47,17.357-8.553,8.059-17.41,15.55-17.41,15.55s-4.049,1.236-2.284-4.722c0,0,9.765-17.94,13.957-23.236,1.2-1.511,2.436-2.893,3.6-4.1a57.639,57.639,0,0,1,5.3-4.89s-.549-.883-1.441-2.41c-4.358-7.463-16.867-30.315-13-40.461,4.652-12.223,16.212-17.728,16.212-17.728s3.668,15.467,6.76,31.365c2.848,14.628,5.207,29.622,3.782,33.27" transform="translate(3247.862 2588.33)"/><path class="a" d="M964.067,478.618c-2.128,9.791-5.816,23.642-9.969,26.824-4.358-7.463-16.867-30.315-13-40.461,4.652-12.223,16.212-17.728,16.212-17.728s3.668,15.467,6.76,31.365" transform="translate(3232.505 2588.33)"/><path class="a" d="M937.022,653.029c-8.553,8.059-17.41,15.55-17.41,15.55s-4.049,1.236-2.284-4.722c0,0,9.765-17.94,13.957-23.236,1.2-1.511,2.436-2.893,3.6-4.1-.137,4.579-.007,12.348,2.14,16.5" transform="translate(3247.862 2464.546)"/><path class="c" d="M985.876,396.125s-10.134-25.432-9.6-26.166c.331-.459.975-14.334,1.414-24.761.267-6.342.459-11.41.459-11.41s4.49,1.6,5.565,12.522c.207,2.107.329,4.091.4,5.943.3,7.752-.265,13.211.895,15.793,1.432,3.2.92,17.8,1.36,19.27s2.723,5.148-.495,8.809" transform="translate(3209.032 2662.536)"/><path class="b" d="M931.052,457.191l-.808-2.98c-5.689,2.461-22.414-1.138-22.414-1.138s-4.984,5.906-2.418,17.886c1.252,5.848,5.682,30.831,7.5,38.149.656,2.652,1.165,4.533,1.371,5.284a.015.015,0,0,1,0,.007,1.074,1.074,0,0,1-.074.683,35.239,35.239,0,0,0-1.774,5.835c-4.138,19.386,7.2,40.8,7.2,40.8l1.938-1.14s.754-25.832,2.765-37.5a22.267,22.267,0,0,1,1.133-4.516c1.211-2.819,2.063-7.255,2.658-12.469a293.525,293.525,0,0,0,1.262-32.21c.189-.019,1.664-16.695,1.664-16.695" transform="translate(3255.844 2584.524)"/><path class="c" d="M903.578,361.316c-2.312-3.5,5.623-17.8,5.34-19.147a38.26,38.26,0,0,0-3.142-8.246,62.268,62.268,0,0,1-2.983-6.468c.413-.574.817-1.112,1.189-1.62a14.39,14.39,0,0,0,1.382-2.169,2.99,2.99,0,0,0,.333-2.069,10.123,10.123,0,0,0-.519-1.481q-.149-.344-.318-.682a21.245,21.245,0,0,0-2.946-4.29,20.069,20.069,0,0,1,7.235-2.571c.327-.108.616-.185.85-.245.161-.042.327-.082.49-.119l.017,0a3.662,3.662,0,0,0,2.651-2.42,22.518,22.518,0,0,0,.768-8.141l.485.064,8.138,1.1s-.026,2.544.112,4.928a13.675,13.675,0,0,0,.564,3.757.581.581,0,0,0,.4.319c1.348.311,5.9.955,5.9.955v.024c-.068,2.564,4.071,7.048,3.782,12.849-.011.218-2.116,15.422-2.107,15.647.17,4.329,2.291,16.521,2.291,16.521,1.935,3.773-28.673,7.11-29.918,3.508" transform="translate(3257.651 2683.558)"/><path class="d" d="M946.169,302.934s-.028,2.542.113,4.926c-4.507.149-7.138-3.81-8.252-6.026l8.139,1.1" transform="translate(3234.031 2683.434)"/><path class="c" d="M944.507,277.7s-10.636.828-11.049-5.8-2.065-10.991,4.708-11.8,8.251,1.639,8.928,3.819.169,13.4-2.587,13.784" transform="translate(3237.334 2710.835)"/><path class="e" d="M940.44,257.775c-1.768-1.894-2.984-1.38-3.645-.738a7.456,7.456,0,0,0-9.475,2.117,12.691,12.691,0,0,1-3.685,7.738s2.014,1.08,6.417-.345a7.619,7.619,0,0,0,3.47-2.723,24.881,24.881,0,0,1-3.954,5.483c5.192-2.8,6.883-10.361,7.048-11.16a8.354,8.354,0,0,1,2.511,2.952c.634,1.656,1.086,5.118,2.092,4.938,0,0,1.872-5.423-.78-8.263" transform="translate(3243.445 2713.306)"/><path class="a" d="M953.1,752.222h-16.5a6.861,6.861,0,0,1,.466-4.424c.959-1.585.368-2.66-.046-4.008a6.058,6.058,0,0,0,2.707.732,8.127,8.127,0,0,0,2.874-1.094c.71.81,3.333,4.487,4.283,5.171,1.079.775,5.888.5,6.22,3.622" transform="translate(3235.085 2394.631)"/><path class="a" d="M901.983,733.582l-6.211-15.291a6.859,6.859,0,0,1,4.274-1.233c1.829.292,2.528-.388,3.475-1.54a6.409,6.409,0,0,0,.561,2.772,5.815,5.815,0,0,0,1.723,1.949A59.331,59.331,0,0,0,903,726.456c-.312,1.291,1.754,5.643-1.015,7.126" transform="translate(3261.668 2412.884)"/><path class="f" d="M931.2,360.534c0-.126.647-4.9,1.227-9.148a13.55,13.55,0,0,0,4.161-1.067c-.073-1.851-1.3-17.69-7.963-18.581-.317-.086-4.932-.665-4.932-.665s3.977,5.794,3.937,6.456-6.414.883-10.607.938c-4.16.055-6.5-6.9-6.538-7.01-.163.038-6.284,1.026-8.575,2.935a21.245,21.245,0,0,1,2.946,4.29q.169.337.318.682a10.092,10.092,0,0,1,.519,1.481,2.99,2.99,0,0,1-.333,2.07,14.365,14.365,0,0,1-1.381,2.169c-.373.508-.777,1.046-1.19,1.62a15.138,15.138,0,0,0,.715,1.8v0c.6,1.317,1.428,2.926,2.268,4.66a38.285,38.285,0,0,1,3.142,8.246c.283,1.348-7.652,15.647-5.34,19.147.369,1.064,3.3,1.523,7.2,1.542,9.294.049,24.081-2.392,22.717-5.051,0,0-2.12-12.192-2.29-16.521" transform="translate(3257.651 2664.312)"/><path class="g" d="M913.124,411.186c-3.9-.02-6.832-.479-7.2-1.542-2.313-3.5,5.622-17.8,5.34-19.147a38.282,38.282,0,0,0-3.142-8.246c-.841-1.734-1.671-3.343-2.268-4.66v0l.52-2.05s8.445,9.819,10.382,14.453c1.518,3.634-2.03,16.016-3.632,21.195" transform="translate(3255.305 2635.232)"/><path class="c" d="M879.475,401.412l-1.671,2.895c-10.74-4.254-17.58-13.838-17.58-13.838-.375-5.442,2.171-11.7,5.221-17.095.506-.894,1.024-1.763,1.547-2.6a67.5,67.5,0,0,0,8.039,6.009c-.446.739-.98,1.624-1.556,2.57-2.381,3.926-5.459,8.952-5.858,9.352-.662.662,11.858,12.708,11.858,12.708" transform="translate(3284.94 2638.348)"/><path class="c" d="M910.758,455.073a3.3,3.3,0,0,0,1.493-.644c.588-.515,2.464-1.968,2.574-1.518s-1.361,1.15-.589,1.26,1.986-.408,3.2-.222,3.081,2.98,2.506,3.312-2.671-.772-3.223-.387-4.488,2.54-7.631,1.1,1.67-2.9,1.67-2.9" transform="translate(3253.656 2584.686)"/><path class="f" d="M882.5,360.839c-5.287-.349-9.185-7.227-9.185-7.227a66.03,66.03,0,0,1,9.895-12.949c14.654,5.594,1.681,18.6-.71,20.176" transform="translate(3276.353 2658.04)"/></g></svg>