<svg xmlns="http://www.w3.org/2000/svg" xmlns:xlink="http://www.w3.org/1999/xlink" width="87" height="75" viewBox="0 0 87 75"><defs><style>.a,.d{fill:#fff;}.b{clip-path:url(#a);}.c{fill:#f7b74d;}.d{opacity:0.149;}</style><clipPath id="a"><rect class="a" width="87" height="75" transform="translate(874 190)"/></clipPath></defs><g class="b" transform="translate(-874 -190)"><g transform="translate(-1)"><circle class="c" cx="5.5" cy="5.5" r="5.5" transform="translate(902 221)"/><circle class="c" cx="5.5" cy="5.5" r="5.5" transform="translate(916 221)"/><circle class="c" cx="5.5" cy="5.5" r="5.5" transform="translate(930 221)"/><path class="d" d="M888,270a8,8,0,0,1-8-8V188a8,8,0,0,1,8-8h64a8,8,0,0,1,8,8v74a8,8,0,0,1-8,8Zm4-8h56a4,4,0,0,0,4-4V192a4,4,0,0,0-4-4H892a4,4,0,0,0-4,4v66A4,4,0,0,0,892,262Z" transform="translate(-2 -7)"/></g></g></svg>