<svg xmlns="http://www.w3.org/2000/svg" width="76.799" height="186.659" viewBox="0 0 76.799 186.659"><defs><style>.a{fill:#ffb27d;}.a,.b,.c,.d,.e,.f,.g{fill-rule:evenodd;}.b{fill:#e2915a;}.c{fill:#233862;}.d{fill:#2b478b;}.e{fill:#e9f3fe;}.f{fill:#22407a;}.g{fill:#d9e9f9;}</style></defs><g transform="translate(-3435.162 -2818.158)"><path class="a" d="M307.761,602.944l.007,1.219s-.332,3.811,4.361,4.368,8.542.484,8.415-2.456a62.044,62.044,0,0,1-1.212-7.7,13.251,13.251,0,0,1,.167-2.282l-9.094-.182-2.678.438.035,6.592" transform="translate(3161.602 2242.062)"/><path class="b" d="M307.726,596.352l.035,6.592a7.694,7.694,0,0,0,3.278.724c4.18,0,6.881-3.065,8.293-5.289a13.251,13.251,0,0,1,.167-2.282l-9.094-.182-2.678.438" transform="translate(3161.602 2242.062)"/><path class="a" d="M316.225,570.3c-1.055,5.679-8.382,5.492-11.549,5.135-.891-.1-1.452-.213-1.452-.213-1-.268-1.565-1.851-1.826-3.924-.517-4.1.136-10.125.829-11.665,1.043-2.318,3.008-4.824,10.386-3.016s4.965,6.407,3.61,13.682" transform="translate(3165.572 2266.389)"/><path class="c" d="M338.808,1013.3H328.425a25.033,25.033,0,0,1,.828-3.725,10.42,10.42,0,0,1,.588-1.5c1.01-2.019,7.424-.734,7.424-.734a4.921,4.921,0,0,1,1.061,2.46,20.71,20.71,0,0,1,.482,3.495" transform="translate(3148.985 1991.522)"/><path class="c" d="M241.477,1003.423c-.029,1.413-.206,2.749-.719,3.276H220.222c.261-.742,1-1.858,3.108-2.2,2.4-.387,6.13-1.542,8.31-3.846a6.187,6.187,0,0,0,1.609-2.913c.966-4.3,7.989,1.316,7.989,1.316a34.811,34.811,0,0,1,.238,4.369" transform="translate(3214.94 1998.119)"/><path class="d" d="M272.292,813.956a32.342,32.342,0,0,0-.516,3.794c-.653,12.735-10.72,41.853-12.52,42.532-2.786,1.05-7.174-1.183-9.469-1.917a1.964,1.964,0,0,1-1.381-2.233c4.985-22.92,6.817-55.921,7.484-75.46a88.642,88.642,0,0,1,2.026-16.64s24.552-6.551,24.7,1.736c.129,7.333-8.133,36.092-10.322,48.189" transform="translate(3197.785 2141.084)"/><path class="c" d="M284.039,813.956l-16.4-33.285a88.641,88.641,0,0,1,2.026-16.64s24.552-6.551,24.7,1.736c.129,7.333-8.133,36.092-10.322,48.189" transform="translate(3186.038 2141.084)"/><path class="d" d="M295.653,767.718l12.98,94.071s5.7,1.374,10.133.277c0,0,3.8-50.034,3.484-62.129s2.727-32.366-.7-34.6-25.9,2.382-25.9,2.382" transform="translate(3168.961 2139.163)"/><path class="c" d="M297.9,547.622a24.415,24.415,0,0,0,7.079-1.916c3.109-1.352,7.032.137,8.305.808a1.9,1.9,0,0,0-.311-.766,1.707,1.707,0,0,1,.656.972c.059.044.086.073.07.084a2.19,2.19,0,0,1,1.064.069s-.291-.042-.4.146a.167.167,0,0,1-.047.052c4.851,2.344,5.3,10.009,3.737,11.782a38.931,38.931,0,0,0-4.129,6.94,4.119,4.119,0,0,1-.48-3.013c.342-1.878-1.28-1.878-3.329-2.732s-.342-3.244-2.134-4.694-8.365-.6-8.279-1.707c-2.44-.889-1.808-5.774-1.808-6.023" transform="translate(3167.637 2273)"/><path class="e" d="M300.873,626.12l-2.988,64.119s-24.941.408-24.229-5.237,8.99-56.919,8.99-56.919l18.227-1.964" transform="translate(3182.379 2223.649)"/><path class="f" d="M341.768,683.191c.219,1.071.365,1.7.365,1.7-3.454,5.619-16.1,5.547-16.1,5.547-2.433-10.753-3.7-27.879-3.7-27.879l9.706-42.549L344.25,631.3s-.925,6.885-2.068,13.891c-.9,5.546-1.411,32.938-.413,38" transform="translate(3152.699 2227.372)"/><path class="f" d="M234.641,649.385a.148.148,0,0,1-.024-.1c0-.925,3.527-2.969,7.347-5.376l.073-.074.009-.005c-.068,1.967-.062,3.9.055,5.7a72.826,72.826,0,0,1-.429,11.373C239.853,658.061,235,650.431,234.641,649.385Zm20.521-29.039A32.478,32.478,0,0,0,247,622.485a12.778,12.778,0,0,0-4.411,2.912c-4.4,4.453-15.8,15.9-18.51,21.214-3.284,6.422,15.01,19.218,15.01,19.218a4.262,4.262,0,0,0,1.994.281c-.862,7.1-1.831,13.656-1.257,16.454,1.037,5.055,5.713,6.752,5.713,6.364,0-.123,1.71-18.37,2.639-27.89.822-8.422,2.154-16.82,3.435-23.782a4.754,4.754,0,0,0,.8-1.117,4.376,4.376,0,0,0,.044-3.305c1.478-7.507,2.7-12.488,2.7-12.488Z" transform="translate(3212.827 2227.169)"/><path class="g" d="M327.008,617.542c.03-.612-2.868-1.457-2.868-1.457s-3.317,4.6-8.783,4.679c0,0,1.558,3.031,3.393,3.816,0,0,8.077-3.4,8.258-7.038" transform="translate(3156.95 2229.766)"/><path class="g" d="M306.24,622.166s-2.9-1.716-2.9-3.577c0,0-1.87-.234-2.687.673,0,0-.686,3.189.224,5.041,0,0,4.17-.635,5.368-2.137" transform="translate(3166.068 2228.257)"/><path class="e" d="M326.551,616.085c.031-.612-1.931-1.873-1.931-1.873s-3.8,4.438-9.263,4.517c0,0,1.558,3.031,3.393,3.816,0,0,7.62-2.827,7.8-6.461" transform="translate(3156.95 2230.908)"/><path class="e" d="M306.276,620.453s-2.928-1.552-2.938-3.413a9.356,9.356,0,0,0-2.584,1.684,5.373,5.373,0,0,0,.155,3.865s4.17-.635,5.368-2.137" transform="translate(3166.031 2229.184)"/><path class="a" d="M260.154,735.24a2.7,2.7,0,0,1,3.053-2.7,1.669,1.669,0,0,1,1.133.626c1.112,1.48,2.17,5.787.2,5.988a4.327,4.327,0,0,1-2.625-1.083,3.819,3.819,0,0,1-1.761-2.584v-.246" transform="translate(3190.599 2158.8)"/><path class="a" d="M356.967,744.323s-2.571,1.285-4.131.643-1.88-1.036-3.625.95-1.981,3.4-1.614,4.139,4.089-.921,4.894-.783c2.412.412,4.428-1.622,5.309-2.757.531-.684-.9-1.017-.833-2.191" transform="translate(3137.389 2151.599)"/><path class="f" d="M347.19,620.013s10.24,1.133,12.654,5.592,14.971,22.531,14.56,30.04-17.129,15.932-17.129,15.932-3.7-1.565-3.758-3.248,11.558-11.744,10.854-13.622-13.491-16.727-14.725-21.623-2.456-13.071-2.456-13.071" transform="translate(3137.547 2227.372)"/><path class="c" d="M328.668,614.212s-7.774,32.558-6.536,44.823c0,0,2.858-13.106,9.735-23.842,0,0-2.51-2.207-2.374-3.021a8.6,8.6,0,0,1,3.671-.18s-.2-14.034-1.327-15.517a8.212,8.212,0,0,0-3.17-2.263" transform="translate(3152.902 2230.908)"/><path class="c" d="M294.78,617.04s-7.7,31.814-8.361,41.982c0,0,.779-18.144.7-23.373,0,0,3.229-1.709,3.229-2.309s-3.444-2.221-3.444-2.221,2.181-11.174,3.371-12.4,4.5-1.674,4.5-1.674" transform="translate(3174.59 2229.184)"/><path class="a" d="M360.548,743.539a9.48,9.48,0,0,1-1.391-1.131c-.328-.407-1.087-.894-1.087-.352a11.85,11.85,0,0,0,1.087,2.548l1.391-1.064" transform="translate(3130.915 2153.127)"/></g></svg>