<svg xmlns="http://www.w3.org/2000/svg" xmlns:xlink="http://www.w3.org/1999/xlink" width="85" height="82" viewBox="0 0 85 82"><defs><style>.a,.c{fill:#fff;}.a{stroke:#707070;}.b{clip-path:url(#a);}.c{opacity:0.102;}.d{fill:none;stroke-linecap:round;stroke-linejoin:round;fill-rule:evenodd;}.e,.f{stroke:none;}.f{fill:#7669f4;}</style><clipPath id="a"><rect class="a" width="85" height="82" transform="translate(1163 190)"/></clipPath></defs><g class="b" transform="translate(-1163 -190)"><path class="c" d="M1173,270a8,8,0,0,1-8-8V188a8,8,0,0,1,8-8h64a8,8,0,0,1,8,8v74a8,8,0,0,1-8,8Zm4-8h56a4,4,0,0,0,4-4V192a4,4,0,0,0-4-4h-56a4,4,0,0,0-4,4v66A4,4,0,0,0,1177,262Z"/><g transform="translate(1092.767 90.767)"><g transform="translate(96.753 118.753)"><g class="d" transform="translate(-96.753 -118.753)"><path class="e" d="M111.915,121.362a3.034,3.034,0,0,0,4.5,0l1.456-1.613a3.033,3.033,0,0,1,5.275,2.188l-.111,2.168a3.037,3.037,0,0,0,3.185,3.185l2.168-.111a3.033,3.033,0,0,1,2.191,5.283l-1.613,1.456a3.034,3.034,0,0,0,0,4.5l1.613,1.456a3.033,3.033,0,0,1-2.188,5.282l-2.168-.111a3.037,3.037,0,0,0-3.185,3.185l.111,2.168a3.033,3.033,0,0,1-5.279,2.183l-1.456-1.613a3.034,3.034,0,0,0-4.5,0l-1.456,1.613a3.033,3.033,0,0,1-5.282-2.188l.111-2.168a3.032,3.032,0,0,0-3.184-3.18l-2.168.111a3.033,3.033,0,0,1-2.183-5.282l1.612-1.456a3.033,3.033,0,0,0,0-4.5l-1.612-1.456a3.033,3.033,0,0,1,2.18-5.274l2.168.111a3.035,3.035,0,0,0,3.187-3.193l-.111-2.168a3.033,3.033,0,0,1,5.282-2.183Z"/><path class="f" d="M 108.2065277099609 118.7531280517578 C 107.8170013427734 118.7531280517578 107.4235458374023 118.8283233642578 107.0482635498047 118.9836273193359 C 105.8621826171875 119.4729156494141 105.1142883300781 120.6559143066406 105.1777877807617 121.9380035400391 L 105.2892532348633 124.1057739257812 C 105.3357162475586 124.9651489257812 105.0136337280273 125.8028411865234 104.4066696166992 126.411376953125 C 103.8369216918945 126.9825744628906 103.0639266967773 127.3027496337891 102.2605056762695 127.3027496337891 C 102.2080078125 127.3027496337891 102.1553268432617 127.3013763427734 102.1026153564453 127.2986297607422 L 99.93484497070312 127.1871337890625 C 99.88792419433594 127.1849822998047 99.84124755859375 127.1838989257812 99.79461669921875 127.1839141845703 C 98.57229614257812 127.1839599609375 97.46311950683594 127.921142578125 96.99269104003906 129.0591735839844 C 96.50433349609375 130.2406005859375 96.80905151367188 131.6001281738281 97.75466918945312 132.4610443115234 L 99.3665771484375 133.9165649414062 C 100.0035858154297 134.4910125732422 100.3671493530273 135.3101196289062 100.3671493530273 136.1679382324219 C 100.3671493530273 137.0257720947266 100.0035858154297 137.8448791503906 99.3665771484375 138.4193420410156 L 97.75466918945312 139.8748474121094 C 96.80223083496094 140.7342376708984 96.49334716796875 142.0999145507812 96.9833984375 143.2860107421875 C 97.45429992675781 144.4253387451172 98.56423950195312 145.1602478027344 99.78671264648438 145.1602478027344 C 99.83688354492188 145.1602478027344 99.88742065429688 145.1589965820312 99.93794250488281 145.156494140625 L 102.1057281494141 145.0450134277344 C 102.157096862793 145.0424041748047 102.2082901000977 145.0411071777344 102.2594604492188 145.0411071777344 C 103.0612106323242 145.0411071777344 103.8330154418945 145.3585205078125 104.4035797119141 145.9276123046875 C 105.0105438232422 146.5346069335938 105.3326263427734 147.3691711425781 105.2892532348633 148.2254638671875 L 105.1777877807617 150.3932495117188 C 105.111198425293 151.6753387451172 105.8606338500977 152.85986328125 107.0467300415039 153.3522796630859 C 107.4225158691406 153.5077819824219 107.8163604736328 153.5830841064453 108.2066116333008 153.5830841064453 C 109.0480728149414 153.5830841064453 109.8723373413086 153.2327880859375 110.4594268798828 152.5811767578125 L 111.9149398803711 150.9677124023438 C 112.4893951416016 150.3313293457031 113.3085174560547 149.9674377441406 114.1663436889648 149.9674377441406 C 115.0241546630859 149.9674377441406 115.8432769775391 150.3313293457031 116.4177398681641 150.9677124023438 L 117.8732452392578 152.5811767578125 C 118.4602355957031 153.2305603027344 119.2826461791992 153.5793914794922 120.1225433349609 153.5793914794922 C 120.5122833251953 153.5793914794922 120.9058685302734 153.5042419433594 121.2813034057617 153.3491516113281 C 122.4658432006836 152.8583374023438 123.2137298583984 151.6784210205078 123.1517944335938 150.3978881835938 L 123.0403137207031 148.2300872802734 C 122.9969635009766 147.3722839355469 123.3190231323242 146.5377044677734 123.9260101318359 145.9306945800781 C 124.4967575073242 145.3599548339844 125.2686996459961 145.0411376953125 126.0720367431641 145.0411376953125 C 126.1230316162109 145.0411376953125 126.174201965332 145.0424194335938 126.2254028320312 145.0450134277344 L 128.3931884765625 145.156494140625 C 128.4460754394531 145.1592407226562 128.4985961914062 145.1605987548828 128.5511169433594 145.1605987548828 C 129.7716217041016 145.1605987548828 130.880126953125 144.4247131347656 131.3522033691406 143.2875671386719 C 131.8430633544922 142.1014709472656 131.5349273681641 140.7342376708984 130.5810852050781 139.8748474121094 L 128.9676513671875 138.4193420410156 C 128.3312530517578 137.8448791503906 127.9673767089844 137.0257720947266 127.9673767089844 136.1679382324219 C 127.9673767089844 135.3101196289062 128.3312530517578 134.4910125732422 128.9676513671875 133.9165649414062 L 130.5810852050781 132.4610443115234 C 131.5364685058594 131.6016693115234 131.8461456298828 130.2328796386719 131.3537445068359 129.0452270507812 C 130.8820953369141 127.9076232910156 129.7726898193359 127.1734771728516 128.5518493652344 127.1735382080078 C 128.4981842041016 127.1735534667969 128.4441375732422 127.1749725341797 128.3900756835938 127.1778411865234 L 126.2223129272461 127.2893218994141 C 126.1710586547852 127.2919158935547 126.1199417114258 127.2931976318359 126.0688934326172 127.2931976318359 C 125.2656173706055 127.2931976318359 124.4936065673828 126.9743347167969 123.9229278564453 126.4036254882812 C 123.31591796875 125.7966461181641 122.9938430786133 124.9620666503906 123.0372161865234 124.1042327880859 L 123.1487197875977 121.9364471435547 C 123.2121887207031 120.657470703125 122.4643096923828 119.4760284423828 121.2813034057617 118.9851684570312 C 120.9054870605469 118.8292236328125 120.5114898681641 118.7537841796875 120.1210403442383 118.7537841796875 C 119.2824630737305 118.7538146972656 118.4606552124023 119.1019592285156 117.8732452392578 119.74853515625 L 116.4177398681641 121.3619842529297 C 115.8432769775391 121.9983825683594 115.0241546630859 122.3622589111328 114.1663436889648 122.3622589111328 C 113.3085174560547 122.3622589111328 112.4893951416016 121.9983825683594 111.9149398803711 121.3619842529297 L 110.4594268798828 119.7547302246094 C 109.8719635009766 119.103759765625 109.0480804443359 118.7531280517578 108.2065277099609 118.7531280517578 M 108.2065277099609 115.2531280517578 C 110.0516586303711 115.2531280517578 111.8190612792969 116.0384826660156 113.0558776855469 117.40771484375 L 114.1656723022461 118.6332244873047 L 115.2744445800781 117.4041290283203 C 115.2771835327148 117.4010925292969 115.2799377441406 117.3980407714844 115.2826995849609 117.39501953125 C 116.5189056396484 116.0343017578125 118.2823791503906 115.2538604736328 120.1209182739258 115.2537841796875 C 120.9835357666016 115.2537689208984 121.8252334594727 115.4215240478516 122.622688293457 115.7524108886719 C 125.1645660400391 116.8071136474609 126.7807846069336 119.3619995117188 126.644416809082 122.1099243164062 C 126.6443099975586 122.1120300292969 126.6442031860352 122.1141357421875 126.6440963745117 122.1162414550781 L 126.5591735839844 123.7673645019531 L 128.2059478759766 123.6826782226562 C 128.3206329345703 123.6766204833984 128.4369964599609 123.6735534667969 128.5518493652344 123.6735534667969 C 131.2025451660156 123.6734008789062 133.5715179443359 125.2557525634766 134.5868835449219 127.7047729492188 C 135.6448059082031 130.2564239501953 134.9770812988281 133.2115325927734 132.9255065917969 135.0598449707031 L 132.9255065917969 135.0598449707031 L 131.6971740722656 136.1679534912109 L 132.9255065917969 137.2760467529297 C 134.9736022949219 139.1213531494141 135.6416320800781 142.0756378173828 134.5862121582031 144.6259460449219 C 133.5681457519531 147.0783081054688 131.1997985839844 148.6605987548828 128.5511169433594 148.6605987548828 C 128.4383239746094 148.6605987548828 128.3240661621094 148.6576232910156 128.2114868164062 148.6517791748047 L 126.5622634887695 148.5669555664062 L 126.6471786499023 150.2181396484375 C 126.6473541259766 150.2216949462891 126.6475372314453 150.2252502441406 126.647705078125 150.2288208007812 C 126.7805862426758 152.9761962890625 125.1623992919922 155.5295715332031 122.6210632324219 156.5825805664062 C 121.8218536376953 156.9127197265625 120.9824066162109 157.0793914794922 120.1225433349609 157.0793914794922 C 118.2787780761719 157.0793914794922 116.512565612793 156.2952880859375 115.2767868041992 154.9281768798828 L 114.1663360595703 153.6972198486328 L 113.0582427978516 154.9255676269531 C 111.8234100341797 156.2961120605469 110.0545272827148 157.0830688476562 108.2066040039062 157.0830688476562 C 107.3454971313477 157.0830688476562 106.5049743652344 156.9159393310547 105.7084197998047 156.5863037109375 C 103.155876159668 155.5265808105469 101.5394744873047 152.9654541015625 101.6824951171875 150.2117004394531 L 101.7670669555664 148.5670471191406 L 100.1177215576172 148.6518859863281 C 100.1154632568359 148.6520080566406 100.1131896972656 148.652099609375 100.1109313964844 148.6522216796875 C 100.0032958984375 148.6575469970703 99.89421081542969 148.6602478027344 99.78671264648438 148.6602478027344 C 97.13252258300781 148.6602478027344 94.76249694824219 147.0755004882812 93.74879455566406 144.6229400634766 C 92.69602966308594 142.0748901367188 93.36369323730469 139.1226806640625 95.40998840332031 137.2762908935547 L 96.63742065429688 136.1679534912109 L 95.40901184082031 135.0587310791016 C 95.40547180175781 135.0555267333984 95.40194702148438 135.0523223876953 95.39842224121094 135.0491180419922 C 93.36936950683594 133.2018127441406 92.71018981933594 130.25732421875 93.75813293457031 127.7221527099609 C 94.77217102050781 125.2691040039062 97.14157104492188 123.6840209960938 99.79447937011719 123.6839141845703 C 99.89451599121094 123.6839141845703 99.99583435058594 123.6862335205078 100.0957641601562 123.6908416748047 C 100.10205078125 123.6911315917969 100.1083374023438 123.6914367675781 100.1146240234375 123.6917572021484 L 101.7677154541016 123.7767791748047 L 101.6824035644531 122.1177368164062 C 101.6822967529297 122.1155395507812 101.6821746826172 122.1133422851562 101.6820755004883 122.1111450195312 C 101.5456237792969 119.3562622070312 103.1657485961914 116.7991638183594 105.7135391235352 115.7481231689453 C 106.5059585571289 115.4201812744141 107.345947265625 115.2531280517578 108.2065277099609 115.2531280517578 Z"/></g><g class="d" transform="translate(-93.054 -115.053)"><path class="e" d="M110.467,139.436a6.968,6.968,0,1,0-6.968-6.968A6.968,6.968,0,0,0,110.467,139.436Z"/><path class="f" d="M 110.4668731689453 139.4357299804688 C 114.3146743774414 139.4357299804688 117.4347381591797 136.315673828125 117.4347381591797 132.4678649902344 C 117.4347381591797 128.6200256347656 114.3146743774414 125.4999771118164 110.4668731689453 125.4999771118164 C 106.6190567016602 125.4999771118164 103.4990081787109 128.6200256347656 103.4990081787109 132.4678649902344 C 103.4990081787109 136.315673828125 106.6190567016602 139.4357299804688 110.4668731689453 139.4357299804688 M 110.4668731689453 142.9357299804688 C 104.6948776245117 142.9357299804688 99.99900817871094 138.2398681640625 99.99900817871094 132.4678649902344 C 99.99900817871094 126.6958618164062 104.6948776245117 121.9999771118164 110.4668731689453 121.9999771118164 C 116.2388763427734 121.9999771118164 120.9347381591797 126.6958618164062 120.9347381591797 132.4678649902344 C 120.9347381591797 138.2398681640625 116.2388763427734 142.9357299804688 110.4668731689453 142.9357299804688 Z"/></g></g></g></g></svg>