<svg xmlns="http://www.w3.org/2000/svg" width="20.022" height="19.996" viewBox="0 0 20.022 19.996"><defs><style>.a{fill:#fff;}</style></defs><path class="a" d="M2159.008,845h-1.658c-.241,0-.572-.016-.571-.257a4.534,4.534,0,0,0-.929-2.845c-.164-.177-.116-.338.055-.509l1.172-1.108a.962.962,0,0,0,0-1.383,1,1,0,0,0-1.416.016l-1.172,1.178a.5.5,0,0,1-.635.059,6.971,6.971,0,0,0-2.445-1.01.5.5,0,0,1-.41-.484V837a1,1,0,0,0-2,0v1.656a.5.5,0,0,1-.41.487,6.971,6.971,0,0,0-2.445,1.012.5.5,0,0,1-.635-.055l-1.172-1.171a1,1,0,0,0-1.416,1.414l1.172,1.17a.489.489,0,0,1,.055.634,5.145,5.145,0,0,0-.954,2.691c-.027.239-.305.16-.546.16h-1.658a1,1,0,1,0,0,2h1.658c.241,0,.533.087.581.323a6.015,6.015,0,0,0,.918,2.278.689.689,0,0,1-.055.759l-1.172,1.233a1.037,1.037,0,0,0,0,1.445,1,1,0,0,0,1.416.016l1.172-1.163a.5.5,0,0,1,.635-.051,6.978,6.978,0,0,0,2.445,1.013.5.5,0,0,1,.41.488V855a1,1,0,0,0,2,0v-1.656a.5.5,0,0,1,.41-.486,6.974,6.974,0,0,0,2.445-1.011.5.5,0,0,1,.635.055l1.172,1.17a1,1,0,1,0,1.416-1.414l-1.172-1.171a.5.5,0,0,1-.055-.634,7.211,7.211,0,0,0,1.013-1.942c.076-.228.246-.91.487-.91h1.658a1,1,0,1,0,0-2Zm-4.185,2.358a4.934,4.934,0,0,1-3.466,3.461,5.02,5.02,0,0,1-6.185-6.177,4.935,4.935,0,0,1,3.466-3.461A5.02,5.02,0,0,1,2154.823,847.361ZM2151,846a1,1,0,1,1-1-1A1,1,0,0,1,2151,846Z" transform="translate(-2139.987 -836.004)"/></svg>