<svg xmlns="http://www.w3.org/2000/svg" xmlns:xlink="http://www.w3.org/1999/xlink" width="91" height="82" viewBox="0 0 91 82"><defs><style>.a,.c{fill:#fff;}.a{stroke:#707070;}.b{clip-path:url(#a);}.c{opacity:0.102;}</style><clipPath id="a"><rect class="a" width="91" height="82" transform="translate(308 191)"/></clipPath></defs><g class="b" transform="translate(-308 -191)"><path class="c" d="M318,270a8,8,0,0,1-8-8V188a8,8,0,0,1,8-8h64a8,8,0,0,1,8,8v74a8,8,0,0,1-8,8Zm4-8h56a4,4,0,0,0,4-4V192a4,4,0,0,0-4-4H322a4,4,0,0,0-4,4v66A4,4,0,0,0,322,262Zm24.025-16.179v-21.5q0-.057,0-.112c0-.019,0-.038,0-.057a2,2,0,0,0-1.994-1.842,1.921,1.921,0,0,0-.521.072,1.98,1.98,0,0,0-.834.483l-3.964,3.786a3.95,3.95,0,0,1-5.621-.16,4.047,4.047,0,0,1,.158-5.679l11.294-10.786A7.891,7.891,0,0,1,350,207.836h0a7.889,7.889,0,0,1,5.461,2.192l11.294,10.786a4.049,4.049,0,0,1,.158,5.679l-.074.077-.05.05-.033.032a3.947,3.947,0,0,1-5.463,0l-3.967-3.786a1.994,1.994,0,0,0-.675-.431,1.908,1.908,0,0,0-.677-.123,2.007,2.007,0,0,0-1.868,1.281h0l0,0c-.014.038-.028.077-.04.117l-.009.032a2.029,2.029,0,0,0-.062.3q-.012.092-.016.188,0,.043,0,.087v21.5a3.976,3.976,0,1,1-7.951,0Z"/></g></svg>