<svg xmlns="http://www.w3.org/2000/svg" width="65.751" height="184.771" viewBox="0 0 65.751 184.771"><defs><style>.a{fill:#233862;}.a,.b,.c,.d,.e,.f,.g{fill-rule:evenodd;}.b{fill:#d9935c;}.c{fill:#739af0;}.d{fill:#4a75cb;}.e{fill:#cb7d45;}.f{fill:#2b478b;}.g{fill:#ffa412;}</style></defs><g transform="translate(-3070.61 -3567.58)"><path class="a" d="M1278.113,1261.848s-2.409-6.849-2.538-8.627a6.943,6.943,0,0,1,6.6-7.46,51.388,51.388,0,0,0,8.139-1.18l-1.129,1.335a4.233,4.233,0,0,1,3.363.614c1.717,1.129,2.59,4.466,2.335,7.341s-2.5,6.037-2.535,7.227-14.234.75-14.234.75" transform="translate(1825.409 2323)"/><path class="b" d="M1229.653,1517.77a16.845,16.845,0,0,1-1.769,4.97s-.75,2.312,4.152,5.782.136-10.752.136-10.752h-2.519" transform="translate(1857.698 2138.15)"/><path class="b" d="M1248.446,1330.82s-2.749,14.713-5.746,30.083c-3.256,16.705-6.81,34.186-7.447,34.4-1.226.407-3.1-1.193-3.916-3.234-.656-1.643-1.782-15.14-1.016-23.861a43.831,43.831,0,0,1,.644-4.957c1.226-5.513,1.6-25.012,5.271-28.075s12.21-4.356,12.21-4.356" transform="translate(1856.195 2264.647)"/><path class="c" d="M1248.985,1330.82s-1.585,8.479-3.657,19.289c-.656,3.428-1.365,7.091-2.089,10.794-2.936,5.756-5.458,9.672-6.234,8.935-1.591-1.5-4.378-1.685-6.144-1.63a43.774,43.774,0,0,1,.644-4.957c.1-.437.188-.957.278-1.552,1.025-6.936,1.61-23.7,4.993-26.522,3.677-3.062,12.21-4.356,12.21-4.356" transform="translate(1855.656 2264.647)"/><path class="d" d="M1245.327,1370.239c-.656,3.428-1.365,7.091-2.089,10.794-2.936,5.756-5.458,9.672-6.234,8.935-1.591-1.5-4.378-1.685-6.144-1.63a43.774,43.774,0,0,1,.644-4.957c.1-.437.188-.957.278-1.552l8.805-21.258,4.74,9.669" transform="translate(1855.656 2244.517)"/><path class="b" d="M1299.017,1310.264a65.094,65.094,0,0,0-.385-9.5l-11.842,1.937s0,3.612.052,7.625h-.013s-.323,3.722,4.259,4.265,8.055-1.452,7.929-4.323" transform="translate(1817.812 2284.987)"/><path class="e" d="M1286.68,1309.01s2.791,5.714,5.989,5.714,6.2-5.374,6.2-5.374l-12.184-.339" transform="translate(1817.886 2279.404)"/><path class="a" d="M1311.1,1802.145a20.855,20.855,0,0,1,1.429-5.355c1-2,7.35-.724,7.35-.724s1.268,1.09,1.542,6.17l-10.322-.091" transform="translate(1801.363 1950.116)"/><path class="a" d="M1201.884,1793.344c1.491-.912.644-7.706.644-7.706s-6.956-5.565-7.913-1.306-6.606,6.173-9.824,6.694c-2.218.362-2.907,1.591-3.12,2.318h20.213" transform="translate(1888.94 1958.871)"/><path class="b" d="M1284.639,1279.039a16.238,16.238,0,0,0,5.5,1.908,44.24,44.24,0,0,0,5.914-1.662c1.41-.854,1.319-2.584,1.391-4.986.087-2.846.375-5.077.055-6.716-.375-1.963-1.62-3.078-5.1-3.382-6.39-.553-9.054,1.048-9.164,3.188-.029.576-.055,1.125-.074,1.646-.255,6.681.272,9.051,1.481,10.005" transform="translate(1820.312 2309.799)"/><path class="f" d="M1239.147,1550.854a32.742,32.742,0,0,0-.511,3.758c-.647,12.611-10.613,41.443-12.4,42.115-2.758,1.041-7.1-1.174-9.374-1.9a1.945,1.945,0,0,1-1.368-2.212c4.935-22.694,6.749-55.373,7.411-74.72a87.842,87.842,0,0,1,2.005-16.479s24.311-6.487,24.456,1.72c.129,7.26-8.052,35.738-10.222,47.716" transform="translate(1866.079 2150.862)"/><path class="a" d="M1254.74,1550.854,1238.5,1517.9a87.849,87.849,0,0,1,2-16.479s24.311-6.487,24.456,1.72c.129,7.26-8.052,35.738-10.222,47.716" transform="translate(1850.487 2150.862)"/><path class="f" d="M1271.99,1505.72l12.854,93.152s5.643,1.358,10.034.272c0,0,3.764-49.543,3.45-61.52s2.7-32.049-.689-34.26-25.649,2.357-25.649,2.357" transform="translate(1827.826 2148.309)"/><path class="g" d="M1279.273,1387.014a1.92,1.92,0,0,1-1.892,2l-20.252.31-14.875.226c-.7.013,1.5-5.562,1.549-41.9.01-8.11,12.566-16.838,12.8-16.838l0,0c0,1.167,1.84,3.324,4.676,3.509,3.363.22,7.492-1.452,7.492-3.392a9.309,9.309,0,0,1,1.019,1.316c1.682,2.448,5.064,8.414,7.224,18.8,1.7,8.2,1.051,19.169,2.276,33.319.091,1.022-.042,1.931-.016,2.645" transform="translate(1848.039 2264.654)"/><path class="c" d="M1278.526,1389.123a41.3,41.3,0,0,1-7.728,2.25,76.289,76.289,0,0,1-14.972,1.5c-9.846.064-13.572-3.331-13.572-3.331-.7.013,1.5-5.562,1.549-41.9.01-8.11,12.566-16.838,12.8-16.838l0,0s-.323,10.8,2.946,13.976c0,0,4.579-3.541,10.522-13.61,1.682,2.445,4.783,9.481,6.943,19.871a56.8,56.8,0,0,1,.922,6.894c.572,7.169.443,15.919,1.355,26.425.091,1.022-.042,1.931-.016,2.645.042,1.08.333,2.092-.747,2.108" transform="translate(1848.039 2264.654)"/><path class="d" d="M1330.436,1431.663a41.3,41.3,0,0,1-7.729,2.25c-1.584-2.416-3.58-6.778-3.858-13.649-.466-11.619,10.571-26.584,10.571-26.584l.424,6.8c.572,7.169.443,15.919,1.355,26.426.09,1.022-.042,1.93-.016,2.645.042,1.08.333,2.092-.747,2.108" transform="translate(1796.129 2222.114)"/><path class="f" d="M1300.671,1415.271l-18.817,10.862-14.9-25.811,18.817-10.862,14.9,25.811" transform="translate(1831.237 2224.969)"/><path class="b" d="M1320.6,1374.165a58.139,58.139,0,0,1-10.438-.3,100.367,100.367,0,0,1-18.109-3.647l2.1-3.583s8.579-.378,14.865-1.3a36.5,36.5,0,0,0,4.1-.789c1.365-.365-5.416-17.552-8.838-27.661-.818-2.412-1.442-4.424-1.72-5.7,0,0,.6.1,1.536.281,2.665.527,8.078,1.762,10.38,3.505,3.117,2.354,10.9,28.928,6.125,39.2" transform="translate(1814.253 2264.403)"/><path class="c" d="M1345.3,1374.686a58.126,58.126,0,0,1-10.438-.3,12.5,12.5,0,0,0-1.145-8.53,36.467,36.467,0,0,0,4.1-.789c1.365-.365-5.416-17.552-8.838-27.661-.275-3.269-.42-5.455-.42-5.455l.236.032c2.665.527,8.078,1.762,10.38,3.505,3.117,2.354,10.9,28.928,6.125,39.2" transform="translate(1789.549 2263.883)"/><path class="d" d="M1296.01,1342.522s9.167-4.039,9.3-4.356a7.288,7.288,0,0,0-1.09-3.5s4.4.411,4.673-.136a37.013,37.013,0,0,0,.362-5.08,7.015,7.015,0,0,0-3.99-2s-1.989,4.925-2.723,6.4c-1.953,3.9-6.535,8.666-6.535,8.666" transform="translate(1811.573 2266.921)"/><path class="d" d="M1279.259,1334.524a30.568,30.568,0,0,0,2.176,7.987s-4.786-3.337-5.193-4.424,1.158-3.2,1.158-3.2-2.859-.068-2.927-1.019a30.7,30.7,0,0,1,.883-4.7s2.461-1.795,3.14-1.727l.763,7.078" transform="translate(1826.149 2266.931)"/><path class="a" d="M1282.52,1270.146s.249-4.259,2.891-4.311,7.24-.307,9.151-2.1-11.353-.973-11.353-.973-1.6,5.128-.689,7.389" transform="translate(1820.892 2310.827)"/><path class="a" d="M1315.94,1265.285s3.447,1.4,3.929,3.593c0,0,1.135-8.074-3.929-3.593" transform="translate(1798.088 2309.907)"/><path class="b" d="M1278.432,1430.287a17.52,17.52,0,0,1-2.1-3.049c-.078-.573-4.078-2.687-3.819-1.746.21.767,1.908,2.154,1.617,2.348s-5.028-2.593-5.268-2.092c-.369.776,1.846,4.508,2.5,5.423s4.97,2.7,4.97,2.7l2.1-3.583" transform="translate(1829.969 2200.75)"/></g></svg>